<?xml version="1.0" encoding="UTF-8" standalone="no"?>
<!DOCTYPE svg PUBLIC "-//W3C//DTD SVG 1.1//EN" "http://www.w3.org/Graphics/SVG/1.1/DTD/svg11.dtd">
<svg width="100%" height="100%" viewBox="0 0 512 512" version="1.1" xmlns="http://www.w3.org/2000/svg" xmlns:xlink="http://www.w3.org/1999/xlink" xml:space="preserve" xmlns:serif="http://www.serif.com/" style="fill-rule:evenodd;clip-rule:evenodd;stroke-linecap:round;stroke-linejoin:round;">
    <g transform="matrix(0.649857,0,0,0.660301,125.475,104.785)">
        <rect x="-261.056" y="-177.99" width="923.817" height="813.999"/>
    </g>
    <g transform="matrix(1,0,0,1,17.9395,71.748)">
        <g transform="matrix(1.27623,0,0,1.27623,3.23487,-81.203)">
            <path d="M92,276L92,84L184,84C230,84 260,108 260,145C260,172 244,191 217,199C252,207 276,231 276,263C276,306 240,332 190,332L92,332" style="fill:none;fill-rule:nonzero;stroke:url(#_Linear1);stroke-width:18px;"/>
        </g>
        <g transform="matrix(1.27623,0,0,1.27623,3.23487,-106.728)">
            <path d="M142,137L181,137C202,137 215,148 215,164C215,181 201,192 181,192L142,192" style="fill:none;fill-rule:nonzero;stroke:url(#_Linear2);stroke-width:14px;"/>
        </g>
        <g transform="matrix(1.27623,0,0,1.27623,3.23487,-73.5456)">
            <path d="M142,226L191,226C215,226 230,238 230,257C230,277 214,290 190,290L142,290" style="fill:none;fill-rule:nonzero;stroke:url(#_Linear3);stroke-width:14px;"/>
        </g>
    </g>
    <defs>
        <linearGradient id="_Linear1" x1="0" y1="0" x2="1" y2="0" gradientUnits="userSpaceOnUse" gradientTransform="matrix(206,-214,214,206,78,284)"><stop offset="0" style="stop-color:rgb(255,97,216);stop-opacity:1"/><stop offset="0.14" style="stop-color:rgb(185,103,255);stop-opacity:1"/><stop offset="0.3" style="stop-color:rgb(91,124,250);stop-opacity:1"/><stop offset="0.45" style="stop-color:rgb(0,212,255);stop-opacity:1"/><stop offset="0.6" style="stop-color:rgb(46,229,157);stop-opacity:1"/><stop offset="0.74" style="stop-color:rgb(249,233,0);stop-opacity:1"/><stop offset="0.88" style="stop-color:rgb(255,159,28);stop-opacity:1"/><stop offset="1" style="stop-color:rgb(255,77,109);stop-opacity:1"/></linearGradient>
        <linearGradient id="_Linear2" x1="0" y1="0" x2="1" y2="0" gradientUnits="userSpaceOnUse" gradientTransform="matrix(112,-118,118,112,126,230)"><stop offset="0" style="stop-color:rgb(0,212,255);stop-opacity:1"/><stop offset="0.48" style="stop-color:rgb(46,229,157);stop-opacity:1"/><stop offset="1" style="stop-color:rgb(249,233,0);stop-opacity:1"/></linearGradient>
        <linearGradient id="_Linear3" x1="0" y1="0" x2="1" y2="0" gradientUnits="userSpaceOnUse" gradientTransform="matrix(206,-214,214,206,78,284)"><stop offset="0" style="stop-color:rgb(255,97,216);stop-opacity:1"/><stop offset="0.14" style="stop-color:rgb(185,103,255);stop-opacity:1"/><stop offset="0.3" style="stop-color:rgb(91,124,250);stop-opacity:1"/><stop offset="0.45" style="stop-color:rgb(0,212,255);stop-opacity:1"/><stop offset="0.6" style="stop-color:rgb(46,229,157);stop-opacity:1"/><stop offset="0.74" style="stop-color:rgb(249,233,0);stop-opacity:1"/><stop offset="0.88" style="stop-color:rgb(255,159,28);stop-opacity:1"/><stop offset="1" style="stop-color:rgb(255,77,109);stop-opacity:1"/></linearGradient>
    </defs>
</svg>
